<?xml version="1.0" encoding="utf-8"?>
<!-- Generator: Adobe Illustrator 22.1.0, SVG Export Plug-In . SVG Version: 6.00 Build 0)  -->
<svg version="1.1" id="Layer_1" xmlns="http://www.w3.org/2000/svg" xmlns:xlink="http://www.w3.org/1999/xlink" x="0px" y="0px"
	 viewBox="0 0 170.5 84.6" style="enable-background:new 0 0 170.5 84.6;" xml:space="preserve">
<style type="text/css">
	.st0{fill:#FFFFFF;stroke:#231F20;stroke-miterlimit:10;}
</style>
<title>sparc-logo-white</title>
<g id="white-logo">
	<path class="st0" d="M169.1,57.1l-60.9-1.5c-1.2,0-2.3,0.7-2.7,1.7l0,0.1l-6.1,14L87.1,4.2l0,0C86.7,2,84.6,0.6,82.4,1
		c-1.6,0.3-2.9,1.6-3.2,3.2l-9.6,51.5L1.5,57.4c-0.8,0-1.5,0.7-1.5,1.5c0,0.8,0.7,1.5,1.5,1.5l70.7,1.2c1.4,0,2.6-0.9,2.9-2.3l0-0.1
		L83,23.9l12.2,58.3l0,0.1c0.3,1.6,1.9,2.6,3.6,2.3c0.9-0.2,1.7-0.9,2.1-1.7l9.2-21.2l58.9-1.5c0.8,0,1.5-0.7,1.5-1.5
		S169.9,57.1,169.1,57.1L169.1,57.1z"/>
	<path class="st0" d="M11.4,1c7,0,11.3,4.5,11.3,11.6v4.2h-6.6v-4.2c0-3.3-1.7-5.2-4.7-5.2c-3,0-4.7,2-4.7,5.2c0,2,0.9,3.8,2.4,5.1
		l8.8,8.3c2.8,2.7,5.3,5.6,5.3,10.6c0,7.1-4.4,11.6-11.5,11.6C4.5,48,0.1,43.5,0.1,36.4v-4.2h6.6v4.2c0,3.3,1.8,5.2,5,5.2
		c3.1,0,4.9-2,4.9-5.2c-0.1-2.1-1.1-4.1-2.7-5.4l-9-8.4c-3.6-3.3-4.9-6.1-4.9-10.2C0.1,5.4,4.4,1,11.4,1z"/>
	<path class="st0" d="M44.3,31.9v15.6h-6.6V1.4H49c7.1,0,11.6,4.5,11.6,11.6v7.4c0,7.2-4.5,11.6-11.6,11.6H44.3z M48.9,25.7
		c3.2,0,5.1-1.9,5.1-5.2v-7.7c0-3.2-1.9-5.2-5.1-5.2h-4.6v18.1H48.9z"/>
	<path class="st0" d="M116.6,47.6h-6.6V1.4h11.6c7.1,0,11.6,4.5,11.6,11.6v6.3c0.2,3.9-1.7,7.7-5.1,9.9c1.9,5.6,4.5,13.3,6.1,18.4
		h-6.7L122,30.8h-5.4L116.6,47.6z M121.6,24.6c3.2,0,5.1-1.9,5.1-5.1v-6.7c0-3.2-1.9-5.2-5.1-5.2h-4.9v17L121.6,24.6z"/>
	<path class="st0" d="M170.5,32.2v4.2c0,7.1-4.4,11.6-11.5,11.6c-7.2,0-11.6-4.5-11.6-11.6V12.5c0-7.1,4.4-11.6,11.6-11.6
		c7.1,0,11.5,4.5,11.5,11.6v4.2h-6.6v-4.2c0-3.3-1.8-5.2-4.9-5.2c-3.2,0-5,2-5,5.2v23.9c0,3.3,1.8,5.2,5,5.2c3.1,0,4.9-2,4.9-5.2
		v-4.2H170.5z"/>
</g>
</svg>
